<?xml version="1.0" encoding="utf-8"?>
<!-- Generator: Adobe Illustrator 21.0.2, SVG Export Plug-In . SVG Version: 6.00 Build 0)  -->
<svg version="1.1" id="Layer_1" xmlns="http://www.w3.org/2000/svg" xmlns:xlink="http://www.w3.org/1999/xlink" x="0px" y="0px"
	 viewBox="0 0 526.8 74.5" style="enable-background:new 0 0 526.8 74.5;" xml:space="preserve">
<style type="text/css">
	.st0{fill:#363145;}
</style>
<g>
	<path class="st0" d="M210.6,73.1V1c0-0.5-0.4-0.9-0.9-0.9h-13c-0.5,0-0.9,0.4-0.9,0.9v72.1c0,0.5,0.4,0.9,0.9,0.9h13
		C210.2,74,210.6,73.6,210.6,73.1z"/>
	<path class="st0" d="M73,0.1H0.9C0.4,0.1,0,0.5,0,1v72.1C0,73.6,0.4,74,0.9,74h12.9c0.5,0,0.9-0.4,0.9-0.9V44.3
		c0-0.5,0.4-0.9,0.9-0.9h42.6c0.5,0,0.9-0.4,0.9-0.9v-12c0-0.5-0.4-0.9-0.9-0.9H15.6c-0.5,0-0.9-0.4-0.9-0.9v-14
		c0-0.5,0.4-0.9,0.9-0.9H73c0.5,0,0.9-0.4,0.9-0.9V1C73.9,0.5,73.5,0.1,73,0.1z"/>
	<path class="st0" d="M319,0.1h-35.3c-0.5,0-0.9,0.4-0.9,0.9v72.1c0,0.5,0.4,0.9,0.9,0.9h36c20.8,0,37.5-17.1,36.9-38
		C356.1,15.9,339.1,0.1,319,0.1z M320.8,60.2h-22.3c-0.5,0-0.9-0.4-0.9-0.9V14.8c0-0.5,0.4-0.9,0.9-0.9h21.3
		c15.6,0,27.4,17.1,19.8,33.5C336.5,53.9,328,60.2,320.8,60.2z"/>
	<path class="st0" d="M148.8,45.4c-0.4-0.5-0.1-1.3,0.6-1.4c4-0.8,7.6-2.6,10.5-5.2c0.1-0.1,0.2-0.2,0.3-0.2
		c0.9-0.9,1.8-1.8,2.6-2.8c0.1-0.2,0.3-0.4,0.4-0.6c0.2-0.3,0.4-0.6,0.6-0.9c0.1-0.2,0.3-0.4,0.4-0.6c0.2-0.4,0.6-1.1,0.8-1.5
		c0.2-0.3,0.3-0.6,0.4-0.9c0.1-0.3,0.3-0.7,0.4-1c0.1-0.3,0.2-0.6,0.3-0.9c0.1-0.2,0.1-0.4,0.2-0.6c0.2-0.6,0.3-1.2,0.5-1.8
		c0-0.1,0.1-0.3,0.1-0.4c0.1-0.5,0.2-1,0.2-1.5c0-0.2,0.1-0.4,0.1-0.6c0.1-0.7,0.1-1.3,0.1-2s0-1.4-0.1-2c0-0.2,0-0.4-0.1-0.6
		c-0.1-0.5-0.1-1-0.2-1.5c0-0.1,0-0.3-0.1-0.4c-0.1-0.6-0.3-1.2-0.5-1.8c-0.1-0.2-0.1-0.4-0.2-0.6c-0.1-0.3-0.2-0.6-0.3-0.9
		c-0.1-0.3-0.3-0.7-0.4-1c-0.1-0.3-0.3-0.6-0.4-0.9c-0.2-0.4-0.6-1.1-0.8-1.5c-0.1-0.2-0.2-0.4-0.4-0.6c-0.2-0.3-0.4-0.6-0.6-0.9
		c-0.1-0.2-0.3-0.4-0.4-0.6c-0.8-1-1.6-2-2.6-2.8c-0.1-0.1-0.2-0.2-0.3-0.2c-3.9-3.5-9.1-5.6-14.7-5.6H94.4c-0.5,0-0.9,0.4-0.9,0.9
		v72.1c0,0.5,0.4,0.9,0.9,0.9h13c0.5,0,0.9-0.4,0.9-0.9V45.8c0-0.5,0.4-0.9,0.9-0.9h21.1c0.3,0,0.6,0.1,0.7,0.4l21.3,28.8
		c0.2,0.2,0.4,0.4,0.7,0.4h13.4c0.7,0,1.1-0.8,0.8-1.4L148.8,45.4z M145.2,30.7h-36.1c-0.5,0-0.9-0.4-0.9-0.9v-15
		c0-0.5,0.4-0.9,0.9-0.9h37c1.9,0,3.7,1.9,4.8,3.5s1.6,3.3,1.6,4.8C152.6,26.3,149.3,30.7,145.2,30.7z"/>
	<circle class="st0" cx="247.7" cy="22.3" r="7.4"/>
	<circle class="st0" cx="247.7" cy="51.8" r="7.4"/>
	<path class="st0" d="M510.6,0.4l-21.1,29.9c-0.4,0.5-1.1,0.5-1.4,0L466.8,0.4C466.6,0.2,466.3,0,466,0c-1.9,0-11.1,0-14.4,0
		c-0.7,0-1.2,0.8-0.8,1.4l30.3,40.8c0.1,0.1,0.2,0.3,0.2,0.5V73c0,0.5,0.4,0.9,0.9,0.9h13.1c0.5,0,0.9-0.4,0.9-0.9V42.7
		c0-0.2,0.1-0.4,0.2-0.5l30.2-40.8c0.4-0.6,0-1.4-0.8-1.4h-14.4C511,0,510.7,0.2,510.6,0.4z"/>
	<path class="st0" d="M453.9,72.6L417.2,0.5C417,0.2,416.7,0,416.4,0h-13.2c-0.3,0-0.7,0.2-0.8,0.5l-36.7,72.1
		c-0.3,0.6,0.1,1.3,0.8,1.3h13.1c0.4,0,0.7-0.2,0.8-0.5l7.7-14.6c0.1-0.3,0.5-0.5,0.8-0.5h41.9c0.4,0,0.7,0.2,0.8,0.5l7.7,14.6
		c0.1,0.3,0.5,0.5,0.8,0.5h13.1C453.8,73.9,454.2,73.2,453.9,72.6z M423.4,44.4h-27.3c-0.6,0-1.1-0.7-0.8-1.3l13.6-27.8
		c0.2-0.4,0.5-0.5,0.8-0.5s0.7,0.2,0.8,0.5l13.6,27.8C424.5,43.7,424.1,44.4,423.4,44.4z"/>
</g>
</svg>
